<svg xmlns="http://www.w3.org/2000/svg" xmlns:xlink="http://www.w3.org/1999/xlink" width="500" zoomAndPan="magnify" viewBox="0 0 375 374.999991" height="500" preserveAspectRatio="xMidYMid meet" version="1.0"><defs><g/><clipPath id="e8740b4408"><path d="M 60.15625 138.242188 L 159.90625 138.242188 L 159.90625 224.492188 L 60.15625 224.492188 Z M 60.15625 138.242188 " clip-rule="nonzero"/></clipPath><clipPath id="98dc73741e"><path d="M 118 185 L 150 185 L 150 224.492188 L 118 224.492188 Z M 118 185 " clip-rule="nonzero"/></clipPath></defs><g clip-path="url(#e8740b4408)"><path fill="#ffffff" d="M 129.421875 175.972656 L 113.453125 138.242188 L 96.402344 138.242188 L 60.421875 223.628906 C 60.339844 223.753906 60.257812 223.878906 60.214844 224.003906 L 60.296875 224.003906 L 60.214844 224.171875 L 68.09375 224.171875 C 78.183594 204.492188 100.28125 180.183594 141.347656 177.515625 C 100.070312 181.019531 77.515625 211.414062 71.222656 224.171875 L 79.140625 224.171875 L 79.226562 224.003906 L 79.601562 224.003906 C 93.402344 200.988281 122.542969 179.144531 159.773438 177.226562 C 149.144531 175.515625 139.011719 175.058594 129.421875 175.972656 Z M 93.234375 188.148438 L 104.742188 158.796875 L 112.703125 179.269531 C 105.910156 181.269531 99.40625 184.230469 93.234375 188.148438 Z M 93.234375 188.148438 " fill-opacity="1" fill-rule="nonzero"/></g><g clip-path="url(#98dc73741e)"><path fill="#ffffff" d="M 118.082031 193.027344 L 130.214844 224.210938 L 149.808594 224.210938 L 133.300781 185.148438 C 127.878906 187.355469 122.792969 190.023438 118.082031 193.027344 Z M 118.082031 193.027344 " fill-opacity="1" fill-rule="nonzero"/></g><g fill="#ffffff" fill-opacity="1"><g transform="translate(159.83853, 191.249987)"><g><path d="M 7.558594 -11.257812 C 6.519531 -11.421875 4.777344 -11.421875 3.738281 -11.257812 L 0.207031 -0.269531 C 0.996094 0.0625 2.097656 0.269531 2.90625 0.207031 L 3.632812 -2.304688 L 7.496094 -2.304688 L 8.246094 0.207031 C 9.054688 0.269531 10.28125 0.0625 11.070312 -0.269531 Z M 4.257812 -4.527344 L 5.523438 -8.949219 L 6.832031 -4.527344 Z M 4.257812 -4.527344 "/></g></g></g><g fill="#ffffff" fill-opacity="1"><g transform="translate(171.114278, 191.249987)"><g/></g></g><g fill="#ffffff" fill-opacity="1"><g transform="translate(174.582147, 191.249987)"><g><path d="M 1.121094 0 L 8.765625 0 C 8.910156 -0.644531 8.910156 -1.703125 8.765625 -2.367188 L 3.820312 -2.367188 L 3.820312 -11.402344 C 2.90625 -11.464844 1.828125 -11.316406 0.933594 -11.007812 C 1.058594 -7 1.121094 -3.324219 1.121094 0 Z M 1.121094 0 "/></g></g></g><g fill="#ffffff" fill-opacity="1"><g transform="translate(183.760571, 191.249987)"><g/></g></g><g fill="#ffffff" fill-opacity="1"><g transform="translate(187.22844, 191.249987)"><g><path d="M 6.3125 0.3125 C 8.308594 0.3125 9.84375 -0.1875 11.070312 -0.996094 L 11.070312 -6.707031 L 6.210938 -6.707031 C 6.0625 -6.125 6.0625 -4.964844 6.210938 -4.359375 L 8.554688 -4.359375 L 8.554688 -2.410156 C 7.996094 -2.242188 7.433594 -2.160156 6.730469 -2.160156 C 4.484375 -2.160156 3.488281 -3.53125 3.488281 -5.667969 C 3.488281 -7.101562 3.757812 -8.035156 4.152344 -8.765625 C 4.796875 -9.011719 5.546875 -9.136719 6.542969 -9.136719 C 7.851562 -9.136719 9.035156 -8.828125 9.800781 -8.371094 C 10.257812 -9.035156 10.613281 -9.863281 10.820312 -10.652344 C 9.78125 -11.257812 8.347656 -11.609375 6.730469 -11.609375 C 2.71875 -11.609375 0.582031 -9.429688 0.582031 -5.667969 C 0.582031 -2.261719 2.304688 0.3125 6.3125 0.3125 Z M 6.3125 0.3125 "/></g></g></g><g fill="#ffffff" fill-opacity="1"><g transform="translate(199.251762, 191.249987)"><g/></g></g><g fill="#ffffff" fill-opacity="1"><g transform="translate(202.719631, 191.249987)"><g><path d="M 6.394531 0.3125 C 10.050781 0.3125 12.191406 -1.867188 12.191406 -5.648438 C 12.191406 -9.054688 10.425781 -11.609375 6.375 -11.609375 C 2.71875 -11.609375 0.582031 -9.429688 0.582031 -5.648438 C 0.582031 -2.261719 2.347656 0.3125 6.394531 0.3125 Z M 6.6875 -2.035156 C 4.734375 -2.035156 3.488281 -3.386719 3.488281 -5.648438 C 3.488281 -7.039062 3.738281 -8.015625 4.152344 -8.886719 C 4.753906 -9.136719 5.335938 -9.261719 6.085938 -9.261719 C 8.035156 -9.261719 9.28125 -7.933594 9.28125 -5.648438 C 9.28125 -4.277344 9.035156 -3.28125 8.617188 -2.429688 C 8.015625 -2.160156 7.433594 -2.035156 6.6875 -2.035156 Z M 6.6875 -2.035156 "/></g></g></g><g fill="#ffffff" fill-opacity="1"><g transform="translate(215.490515, 191.249987)"><g/></g></g><g fill="#ffffff" fill-opacity="1"><g transform="translate(218.958384, 191.249987)"><g><path d="M 1.121094 0.0625 C 2.324219 0.25 3.425781 0.105469 3.820312 -0.0625 L 3.820312 -4.195312 L 4.753906 -4.195312 L 7.371094 0.105469 C 8.097656 0.167969 9.53125 0 10.382812 -0.3125 L 7.433594 -4.652344 C 8.910156 -5.210938 9.71875 -6.273438 9.71875 -7.828125 C 9.71875 -10.195312 8.015625 -11.546875 5.210938 -11.546875 C 3.53125 -11.546875 1.953125 -11.339844 0.933594 -11.070312 C 1.058594 -7 1.121094 -3.324219 1.121094 0.0625 Z M 3.820312 -6.394531 L 3.820312 -9.160156 C 3.820312 -9.160156 4.277344 -9.199219 4.921875 -9.199219 C 6.148438 -9.199219 6.851562 -8.742188 6.851562 -7.789062 C 6.851562 -7.289062 6.769531 -6.9375 6.582031 -6.644531 C 6.230469 -6.480469 5.730469 -6.394531 5.191406 -6.394531 Z M 3.820312 -6.394531 "/></g></g></g><g fill="#ffffff" fill-opacity="1"><g transform="translate(229.382749, 191.249987)"><g/></g></g><g fill="#ffffff" fill-opacity="1"><g transform="translate(232.850618, 191.249987)"><g><path d="M 1.121094 0.0625 C 2.324219 0.25 3.425781 0.105469 3.820312 -0.0625 L 3.820312 -11.402344 C 2.90625 -11.464844 1.828125 -11.316406 0.933594 -11.007812 C 1.058594 -7 1.121094 -3.324219 1.121094 0.0625 Z M 1.121094 0.0625 "/></g></g></g><g fill="#ffffff" fill-opacity="1"><g transform="translate(237.709779, 191.249987)"><g/></g></g><g fill="#ffffff" fill-opacity="1"><g transform="translate(241.177647, 191.249987)"><g><path d="M 3.902344 0.0625 C 5.089844 0.25 6.1875 0.105469 6.605469 -0.0625 L 6.605469 -8.949219 L 9.96875 -8.949219 C 10.113281 -9.59375 10.113281 -10.675781 9.96875 -11.316406 L 0.414062 -11.316406 C 0.269531 -10.675781 0.269531 -9.59375 0.414062 -8.949219 L 3.78125 -8.949219 C 3.84375 -6.5625 3.882812 -2.824219 3.902344 0.0625 Z M 3.902344 0.0625 "/></g></g></g><g fill="#ffffff" fill-opacity="1"><g transform="translate(251.560482, 191.249987)"><g/></g></g><g fill="#ffffff" fill-opacity="1"><g transform="translate(255.028351, 191.249987)"><g><path d="M 9.65625 -11.402344 L 7.039062 -6.417969 L 4.421875 -11.402344 C 3.488281 -11.464844 1.828125 -11.316406 0.933594 -11.007812 C 1.058594 -7 1.121094 -3.324219 1.121094 0.0625 C 2.324219 0.25 3.386719 0.105469 3.800781 -0.0625 L 3.800781 -7.433594 L 6.0625 -3.175781 C 6.6875 -3.03125 7.289062 -3.03125 7.914062 -3.175781 L 10.175781 -7.476562 C 10.21875 -5.191406 10.238281 -1.765625 10.21875 0.105469 C 11.421875 0.269531 12.480469 0.125 12.898438 -0.0429688 L 12.898438 -11.007812 C 12.003906 -11.316406 10.589844 -11.464844 9.65625 -11.402344 Z M 9.65625 -11.402344 "/></g></g></g><g fill="#ffffff" fill-opacity="1"><g transform="translate(159.83853, 224.122836)"><g><path d="M 7.425781 0.496094 C 11.714844 0.496094 14.949219 -1.222656 14.949219 -5.511719 C 14.949219 -8.21875 13.167969 -9.667969 9.703125 -10.789062 L 7.953125 -11.386719 C 6.070312 -12.011719 5.742188 -12.472656 5.742188 -13.363281 C 5.742188 -13.828125 5.90625 -14.222656 6.039062 -14.320312 C 6.699219 -14.519531 7.492188 -14.617188 8.347656 -14.617188 C 10.066406 -14.617188 11.714844 -14.289062 13.003906 -13.5625 C 13.695312 -14.488281 14.191406 -15.9375 14.386719 -17.160156 C 12.871094 -18.050781 10.890625 -18.480469 8.679688 -18.480469 C 4.09375 -18.480469 1.320312 -16.203125 1.320312 -12.640625 C 1.320312 -9.835938 3.101562 -8.414062 6.46875 -7.324219 L 8.21875 -6.730469 C 10.132812 -6.105469 10.527344 -5.644531 10.527344 -4.71875 C 10.527344 -4.191406 10.363281 -3.859375 10.261719 -3.695312 C 9.703125 -3.464844 8.878906 -3.367188 7.753906 -3.367188 C 6.070312 -3.367188 3.53125 -3.828125 2.277344 -4.753906 C 1.617188 -3.925781 1.089844 -2.210938 0.988281 -1.054688 C 2.277344 -0.132812 4.6875 0.496094 7.425781 0.496094 Z M 7.425781 0.496094 "/></g></g></g><g fill="#ffffff" fill-opacity="1"><g transform="translate(175.876497, 224.122836)"><g/></g></g><g fill="#ffffff" fill-opacity="1"><g transform="translate(181.38749, 224.122836)"><g><path d="M 9.867188 0.496094 C 12.210938 0.496094 14.257812 -0.0664062 15.742188 -1.089844 C 15.542969 -2.046875 14.949219 -3.597656 14.320312 -4.519531 C 13.234375 -3.796875 11.914062 -3.433594 10.460938 -3.433594 C 7.0625 -3.433594 5.542969 -5.710938 5.542969 -9.007812 C 5.542969 -11.285156 5.972656 -12.769531 6.601562 -13.925781 C 7.492188 -14.320312 8.644531 -14.519531 9.898438 -14.519531 C 11.386719 -14.519531 12.835938 -14.222656 14.089844 -13.496094 C 14.816406 -14.519531 15.378906 -15.871094 15.574219 -17.09375 C 14.191406 -17.984375 12.34375 -18.445312 10.097656 -18.445312 C 4.324219 -18.445312 0.925781 -14.980469 0.925781 -9.007812 C 0.925781 -3.597656 3.730469 0.496094 9.867188 0.496094 Z M 9.867188 0.496094 "/></g></g></g><g fill="#ffffff" fill-opacity="1"><g transform="translate(197.590458, 224.122836)"><g/></g></g><g fill="#ffffff" fill-opacity="1"><g transform="translate(203.101451, 224.122836)"><g><path d="M 13.199219 -17.425781 C 13.265625 -15.113281 13.332031 -12.835938 13.363281 -10.660156 L 6.070312 -10.660156 L 6.070312 -18.117188 C 4.621094 -18.214844 2.902344 -17.984375 1.484375 -17.488281 C 1.683594 -11.121094 1.78125 -5.28125 1.78125 0.0976562 C 3.695312 0.394531 5.445312 0.164062 6.070312 -0.0976562 L 6.070312 -6.898438 L 13.429688 -6.898438 C 13.464844 -4.453125 13.496094 -2.113281 13.496094 0.164062 C 15.378906 0.429688 17.128906 0.199219 17.785156 -0.0664062 L 17.785156 -18.050781 C 16.300781 -18.148438 14.617188 -17.917969 13.199219 -17.425781 Z M 13.199219 -17.425781 "/></g></g></g><g fill="#ffffff" fill-opacity="1"><g transform="translate(222.538416, 224.122836)"><g/></g></g><g fill="#ffffff" fill-opacity="1"><g transform="translate(228.04941, 224.122836)"><g><path d="M 10.164062 0.496094 C 15.972656 0.496094 19.371094 -2.96875 19.371094 -8.976562 C 19.371094 -14.386719 16.566406 -18.445312 10.132812 -18.445312 C 4.324219 -18.445312 0.925781 -14.980469 0.925781 -8.976562 C 0.925781 -3.597656 3.730469 0.496094 10.164062 0.496094 Z M 10.625 -3.234375 C 7.523438 -3.234375 5.542969 -5.378906 5.542969 -8.976562 C 5.542969 -11.1875 5.941406 -12.738281 6.601562 -14.125 C 7.558594 -14.519531 8.480469 -14.71875 9.667969 -14.71875 C 12.769531 -14.71875 14.75 -12.605469 14.75 -8.976562 C 14.75 -6.796875 14.355469 -5.214844 13.695312 -3.859375 C 12.738281 -3.433594 11.8125 -3.234375 10.625 -3.234375 Z M 10.625 -3.234375 "/></g></g></g><g fill="#ffffff" fill-opacity="1"><g transform="translate(248.344372, 224.122836)"><g/></g></g><g fill="#ffffff" fill-opacity="1"><g transform="translate(253.855366, 224.122836)"><g><path d="M 10.164062 0.496094 C 15.972656 0.496094 19.371094 -2.96875 19.371094 -8.976562 C 19.371094 -14.386719 16.566406 -18.445312 10.132812 -18.445312 C 4.324219 -18.445312 0.925781 -14.980469 0.925781 -8.976562 C 0.925781 -3.597656 3.730469 0.496094 10.164062 0.496094 Z M 10.625 -3.234375 C 7.523438 -3.234375 5.542969 -5.378906 5.542969 -8.976562 C 5.542969 -11.1875 5.941406 -12.738281 6.601562 -14.125 C 7.558594 -14.519531 8.480469 -14.71875 9.667969 -14.71875 C 12.769531 -14.71875 14.75 -12.605469 14.75 -8.976562 C 14.75 -6.796875 14.355469 -5.214844 13.695312 -3.859375 C 12.738281 -3.433594 11.8125 -3.234375 10.625 -3.234375 Z M 10.625 -3.234375 "/></g></g></g><g fill="#ffffff" fill-opacity="1"><g transform="translate(274.150329, 224.122836)"><g/></g></g><g fill="#ffffff" fill-opacity="1"><g transform="translate(279.661322, 224.122836)"><g><path d="M 1.78125 0 L 13.925781 0 C 14.15625 -1.023438 14.15625 -2.707031 13.925781 -3.761719 L 6.070312 -3.761719 L 6.070312 -18.117188 C 4.621094 -18.214844 2.902344 -17.984375 1.484375 -17.488281 C 1.683594 -11.121094 1.78125 -5.28125 1.78125 0 Z M 1.78125 0 "/></g></g></g><g fill="#ffffff" fill-opacity="1"><g transform="translate(294.252584, 224.122836)"><g/></g></g></svg>